<svg xmlns="http://www.w3.org/2000/svg" viewBox="0 0 256 256">
  <defs>
    <linearGradient id="g" x1="0%" y1="0%" x2="100%" y2="100%">
      <stop offset="0%" stop-color="#93df8d"/>
      <stop offset="100%" stop-color="#2b7f4a"/>
    </linearGradient>
  </defs>
  <rect width="256" height="256" rx="56" fill="#101a17"/>
  <path d="M128 34c42 0 76 34 76 76 0 58-44 112-76 112s-76-54-76-112c0-42 34-76 76-76z" fill="url(#g)"/>
  <path d="M128 74c18 20 34 44 34 64 0 18-14 32-34 32s-34-14-34-32c0-20 16-44 34-64z" fill="#e7f8d9"/>
  <path d="M123 106h10v70h-10z" fill="#2e5138"/>
</svg>
